HIERARCHY
ROOT Hips
{
	OFFSET -3.958830 18.904000 13.208200
	CHANNELS 6 Xposition Yposition Zposition Zrotation Yrotation Xrotation 
	JOINT LHipJoint
	{
		OFFSET 0.000000 0.000000 0.000000
		CHANNELS 3 Zrotation Yrotation Xrotation
		JOINT LeftUpLeg
		{
			OFFSET 1.800000 -1.400000 0.085000
			CHANNELS 3 Zrotation Yrotation Xrotation
			JOINT LeftLeg
			{
				OFFSET 2.215000 -6.000000 0.000000
				CHANNELS 3 Zrotation Yrotation Xrotation
				JOINT LeftFoot
				{
					OFFSET 2.500000 -6.900000 0.000000
					CHANNELS 3 Zrotation Yrotation Xrotation
					JOINT LeftToeBase
					{
						OFFSET 0.200000 -0.500000 1.950000
						CHANNELS 3 Zrotation Yrotation Xrotation
						End Site
						{
							OFFSET 0.000000 0.000000 0.000000
						}
					}
				}
			}
		}
	}
	JOINT RHipJoint
	{
		OFFSET 0.000000 0.000000 0.000000
		CHANNELS 3 Zrotation Yrotation Xrotation
		JOINT RightUpLeg
		{
			OFFSET -1.800000 -1.400000 0.085000
			CHANNELS 3 Zrotation Yrotation Xrotation
			JOINT RightLeg
			{
				OFFSET -2.215000 -6.000000 0.000000
				CHANNELS 3 Zrotation Yrotation Xrotation
				JOINT RightFoot
				{
					OFFSET -2.500000 -6.900000 0.000000
					CHANNELS 3 Zrotation Yrotation Xrotation
					JOINT RightToeBase
					{
						OFFSET -0.200000 -0.500000 1.950000
						CHANNELS 3 Zrotation Yrotation Xrotation
						End Site
						{
							OFFSET 0.000000 0.000000 0.000000
						}
					}
				}
			}
		}
	}
	JOINT LowerBack
	{
		OFFSET 0.000000 0.000000 0.000000
		CHANNELS 3 Zrotation Yrotation Xrotation
		JOINT Spine
		{
			OFFSET -0.087000 1.940000 -0.288900
			CHANNELS 3 Zrotation Yrotation Xrotation
			JOINT Spine1
			{
				OFFSET 0.000000 1.950000 0.060000
				CHANNELS 3 Zrotation Yrotation Xrotation
				JOINT Neck
				{
					OFFSET 0.000000 0.000000 0.000000
					CHANNELS 3 Zrotation Yrotation Xrotation
					JOINT Neck1
					{
						OFFSET 0.000000 1.600000 0.340000
						CHANNELS 3 Zrotation Yrotation Xrotation
						JOINT Head
						{
							OFFSET 0.000000 1.667000 -0.240000
							CHANNELS 3 Zrotation Yrotation Xrotation
							End Site
							{
								OFFSET 0.000000 0.000000 0.000000
							}
						}
					}
				}
				JOINT LeftShoulder
				{
					OFFSET 0.000000 0.000000 0.000000
					CHANNELS 3 Zrotation Yrotation Xrotation
					JOINT LeftArm
					{
						OFFSET 2.700000 1.550000 -0.730000
						CHANNELS 3 Zrotation Yrotation Xrotation
						JOINT LeftForeArm
						{
							OFFSET 5.450000 0.000000 0.000000
							CHANNELS 3 Zrotation Yrotation Xrotation
							JOINT LeftHand
							{
								OFFSET 3.450000 0.000000 0.000000
								CHANNELS 3 Zrotation Yrotation Xrotation
								JOINT LeftHandIndex1
								{
									OFFSET 0.750000 0.000000 0.000000
									CHANNELS 3 Zrotation Yrotation Xrotation
									End Site
									{
										OFFSET 0.000000 0.000000 0.000000
									}
								}
							}
						}
					}
				}
				JOINT RightShoulder
				{
					OFFSET 0.000000 0.000000 0.000000
					CHANNELS 3 Zrotation Yrotation Xrotation
					JOINT RightArm
					{
						OFFSET -2.700000 1.550000 -0.730000
						CHANNELS 3 Zrotation Yrotation Xrotation
						JOINT RightForeArm
						{
							OFFSET -5.450000 0.000000 0.000000
							CHANNELS 3 Zrotation Yrotation Xrotation
							JOINT RightHand
							{
								OFFSET -3.450000 0.000000 0.000000
								CHANNELS 3 Zrotation Yrotation Xrotation
								JOINT RightHandIndex1
								{
									OFFSET -0.750000 0.000000 0.000000
									CHANNELS 3 Zrotation Yrotation Xrotation
									End Site
									{
										OFFSET 0.000000 0.000000 0.000000
									}
								}
							}
						}
					}
				}
			}
		}
	}
}
MOTION
Frames: 12
Frame Time: 0.016667
18.836520 17.747430 -25.826710 9.482011 -50.699643 -18.238352 -15.834339 8.861108 8.252268 34.946830 -1.176360 -57.353636 -39.902892 21.872546 32.903329 0.746657 12.099461 0.365480 0.609340 0.599030 0.526210 18.441370 -8.908060 1.692935 -8.104524 -2.001478 10.109207 5.419586 -5.732655 6.138054 -0.914956 -5.312027 2.486342 0.502100 0.313680 0.365060 -3.960219 -0.778716 -9.527792 6.061986 -0.965957 29.238375 -12.003759 6.292815 9.804774 2.468831 -11.194394 -13.838244 -21.416271 15.715165 17.944932 -14.290140 13.063630 -19.266120 -6.045357 -34.207217 5.311874 13.762615 -13.252911 -14.217125 67.681357 -58.000543 -36.110793 -4.081771 2.402592 0.391300 0.318260 0.176760 0.249000 1.342367 43.747345 2.887809 -25.809203 13.081383 -18.623961 -64.065589 82.165512 -42.856161 0.975369 -0.101339 -0.214410 0.384210 -0.123100 -0.121870 
18.819110 17.754010 -25.819130 10.310958 -50.638110 -19.281093 -15.803169 9.006280 8.066459 33.307812 -1.452188 -56.766234 -37.935140 21.066728 32.842639 0.671509 11.806750 0.438963 0.639880 0.648030 0.472300 18.423461 -8.960500 1.776839 -9.124104 -1.866338 10.806576 6.282425 -5.855257 5.503908 -0.955963 -5.426892 2.460996 0.521210 0.317750 0.348830 -3.915734 -0.849835 -9.490967 5.435994 -0.150803 29.409156 -10.738689 6.900796 10.222016 1.777544 -11.745573 -14.336182 -22.723895 14.867380 18.101675 -12.109730 11.112450 -19.500570 -5.106049 -34.116749 5.521039 11.744040 -13.969403 -14.320973 67.037636 -55.492491 -34.926711 -4.056024 2.497865 0.400240 0.275950 0.181600 0.287990 1.930856 44.312778 3.601437 -27.220053 13.154088 -18.268453 -56.365633 79.668850 -35.574134 1.254439 -0.793582 -0.193700 0.406130 -0.128170 -0.080750 
18.778480 17.721070 -25.778130 10.927026 -51.149072 -17.291816 -15.791893 8.994696 7.978666 31.598517 -0.701691 -59.093070 -32.141157 18.845578 31.950461 0.308858 11.142207 0.610087 0.690890 0.728060 0.462220 18.433842 -9.084372 1.751064 -9.019591 -1.138096 8.268659 6.214065 -5.601473 6.037727 -0.856328 -5.259788 2.510922 0.631040 0.405900 0.348960 -4.152439 -0.568333 -9.333767 6.958955 0.574445 24.968879 -11.897127 7.636144 10.996482 1.190360 -11.636458 -14.026579 -22.094906 14.982103 16.312159 -10.147380 10.474520 -18.362690 -5.995620 -33.774170 5.843758 10.033505 -14.670580 -13.689270 71.848610 -52.405031 -36.812983 -4.124398 2.450970 0.346820 0.350450 0.123160 0.319420 3.758573 43.478365 3.435405 -27.513109 15.508413 -17.200267 -56.110066 76.648978 -33.565265 1.240951 -0.920582 -0.227780 0.470110 -0.120990 -0.067690 
18.713170 17.715560 -25.790530 11.134679 -52.448121 -15.655103 -15.764063 9.084772 7.668728 29.336060 0.536452 -59.887677 -24.459411 15.203416 28.253464 -0.170173 9.799685 1.029925 0.696230 0.768970 0.406490 18.430414 -9.286560 1.846915 -8.225552 -0.774787 6.314558 5.665300 -5.191222 5.422183 -0.786052 -5.060973 2.612942 0.702240 0.525840 0.321100 -4.472948 -0.164882 -9.117228 8.308886 1.974018 21.012664 -13.531570 9.050604 11.688802 0.583099 -11.167118 -13.426455 -20.758688 14.627920 16.472975 -7.726040 9.322560 -18.140230 -4.855667 -32.687861 5.109819 8.232146 -18.029202 -12.564698 69.288312 -51.339848 -34.934558 -4.088294 2.337179 0.324990 0.407650 0.076640 0.364660 3.375350 41.748909 3.567968 -22.573193 18.598165 -16.241109 -60.295987 70.963812 -34.187394 1.187979 -0.828417 -0.282910 0.602750 -0.091120 -0.035350 
18.685290 17.736920 -25.814300 12.000098 -52.289372 -16.723489 -15.679726 9.357522 7.298079 26.381150 0.597466 -59.775040 -18.344968 12.069747 24.495568 -0.492612 8.287043 1.491239 0.760500 0.804090 0.542960 18.423252 -9.522487 1.997614 -8.473245 -0.668516 6.522535 5.384681 -5.138802 5.130273 -0.824467 -5.062043 2.564823 0.715820 0.388370 0.312110 -4.596488 -0.020640 -8.986345 8.268952 2.279286 21.009939 -14.531769 9.633724 12.617294 0.970954 -11.184364 -13.861068 -20.879148 14.955099 17.222388 -9.551090 10.457720 -19.609170 -4.536553 -32.945933 4.903691 7.774994 -18.124203 -13.154496 70.409700 -51.422423 -35.933611 -3.989830 2.335580 0.390400 0.337690 0.143430 0.329170 2.219248 42.166897 4.131415 -18.233884 20.098440 -16.423873 -61.480726 64.292605 -32.823502 1.396886 -1.077182 -0.277800 0.530730 -0.164990 -0.098840 
18.654500 17.685340 -25.841850 12.955342 -53.247457 -13.946316 -15.778468 9.428180 7.236040 24.587905 1.124586 -62.765257 -12.865205 9.361223 18.668104 -0.794694 6.978637 1.931199 0.793250 0.831860 0.559510 18.369952 -9.385491 1.877420 -7.491815 -0.060940 2.983734 4.176567 -4.470280 4.755608 -0.682472 -4.667060 2.648935 0.789060 0.432900 0.351950 -4.304495 -0.447963 -8.867528 6.570451 4.414427 16.224200 -14.124416 10.858838 12.723572 0.738548 -10.524055 -13.418933 -19.250231 14.289928 16.157256 -9.219510 9.913070 -18.662630 -3.330822 -31.889992 4.349689 4.778424 -22.342643 -12.137475 66.461262 -42.752164 -29.568613 -4.150641 2.551405 0.354130 0.411490 0.092160 0.311540 1.327435 40.737197 4.023443 -14.380430 22.232725 -14.901103 -60.816682 57.721418 -30.255019 1.393474 -1.302894 -0.296510 0.530530 -0.127540 -0.123480 
18.602940 17.608490 -25.897830 15.296835 -52.786397 -10.975507 -15.912838 9.662179 6.960168 20.990717 0.044961 -63.250341 -8.290400 5.596867 5.502943 -0.872711 5.050903 2.715963 0.618670 0.626280 0.459480 18.241970 -9.115162 1.891625 -6.830960 0.444247 -0.270178 2.716493 -3.559819 1.304706 -0.505594 -4.275320 2.814141 0.661710 0.544220 0.370170 -3.602898 -1.290226 -8.778148 0.646299 6.510178 11.608360 -12.055166 10.922653 9.901288 1.550643 -9.836935 -13.412285 -17.452732 14.540603 14.167524 -10.061940 11.248930 -15.839740 -3.774123 -30.134058 4.180856 6.120997 -21.656773 -11.070337 65.737306 -41.550175 -27.388227 -4.242565 2.582038 0.267890 0.506670 -0.005180 0.280350 1.261599 39.907367 4.290114 -11.541620 24.510246 -13.163953 -58.612711 51.810665 -26.767008 1.523095 -1.455653 -0.325420 0.491610 -0.057030 -0.108860 
18.610330 17.646140 -25.886120 17.127893 -52.379773 -11.875930 -15.860467 9.728818 6.869307 18.925378 -0.655314 -62.954248 -6.440729 4.331226 0.186733 -1.011172 4.557674 2.903460 0.651430 0.704200 0.378660 18.248786 -9.182860 1.859727 -8.554219 0.960068 -1.297297 3.274050 -3.606232 1.793341 -0.485386 -4.249720 2.820506 0.746840 0.644920 0.366000 -3.685028 -1.284778 -8.732715 -0.342287 6.701887 11.160618 -11.888672 11.258948 10.148509 0.179222 -10.069345 -13.473376 -18.012897 15.132363 13.083885 -6.463530 9.401390 -17.245380 -4.837879 -31.032433 4.338673 7.514593 -19.199693 -11.492459 64.524519 -41.717105 -26.841985 -4.318083 2.547460 0.261440 0.528560 -0.038160 0.297780 5.069095 40.671229 4.453804 -14.136339 25.652535 -13.076830 -50.638087 47.237999 -20.511831 1.555565 -1.528249 -0.337220 0.626280 0.029970 -0.067110 
18.647530 17.729750 -25.901580 13.029200 -53.044653 -11.842540 -15.748129 9.257199 7.486375 24.346097 3.445900 -62.329178 -11.151594 5.685676 2.071408 -0.757168 5.778023 2.378632 0.681630 0.675160 0.458870 18.380825 -9.497442 1.763060 -6.705671 0.570824 -0.781710 3.603476 -4.254946 6.491257 -0.582596 -4.116239 2.824681 0.631310 0.416470 0.325850 -4.453325 -0.119086 -9.141858 5.988795 4.586994 18.033829 -15.696244 11.300594 8.452646 1.370113 -11.477371 -14.797883 -20.931097 14.268908 14.919966 -6.200800 8.751420 -22.303250 -7.859405 -32.580557 3.995052 9.827057 -18.160715 -13.037505 61.764338 -41.654601 -25.093151 -4.073623 2.550094 0.453210 0.279850 0.115000 0.250280 5.525424 43.179326 5.343493 -15.279182 24.155935 -14.665731 -44.029571 39.298452 -14.860244 1.912045 -1.608753 -0.277840 0.559660 -0.011150 -0.105760 
18.679850 17.739120 -25.906850 10.958724 -53.029582 -11.575982 -15.673277 9.175932 7.606940 25.355772 4.477319 -60.734763 -12.027371 5.472538 0.110379 -0.490411 5.841071 2.408758 0.633940 0.642490 0.379280 18.422027 -9.657353 1.790138 -6.085568 0.484015 -0.448557 4.286337 -4.583976 8.353945 -0.602864 -4.177779 2.872396 0.527690 0.381800 0.281970 -4.753814 0.306181 -9.287731 8.853303 3.144853 21.562859 -16.916582 11.042248 6.998949 2.230979 -12.469289 -16.555065 -23.564284 13.660262 16.247923 -5.972560 8.451470 -20.381320 -9.009961 -33.359931 4.425641 10.500100 -16.769623 -13.685475 58.418943 -39.097398 -21.920992 -3.983886 2.696885 0.419940 0.209980 0.139120 0.321390 5.541792 45.041916 6.253502 -16.973223 21.819346 -15.010624 -38.842404 36.308666 -11.718431 2.161907 -1.725746 -0.220320 0.491640 -0.099420 -0.028450 
18.684710 17.729790 -25.924610 9.803340 -52.077290 -10.372739 -15.514362 9.844514 6.798684 19.904143 1.924999 -57.754231 -6.070263 4.177612 -2.739123 -0.719032 4.476888 2.865457 0.719320 0.714360 0.492740 18.409594 -10.009346 2.000480 -5.242430 0.337249 -1.461901 4.332847 -4.587481 8.886202 -0.622913 -4.091922 2.837206 0.574050 0.274810 0.304270 -4.809677 0.128577 -8.940205 9.331632 2.825069 20.782648 -16.988628 10.929614 8.301586 2.389964 -12.451844 -16.714469 -23.458851 13.437568 15.757978 -7.417300 8.621900 -22.517470 -7.825120 -33.473482 4.589791 9.011803 -17.304329 -13.905366 57.690123 -35.922265 -20.772133 -4.000195 2.786691 0.464220 0.166660 0.192550 0.283030 3.983044 44.859357 6.025273 -15.961081 21.442094 -14.909990 -38.061404 33.571822 -11.072327 2.177068 -1.786099 -0.194610 0.441870 -0.129390 -0.080990 
18.622050 17.701670 -25.793090 5.861397 -55.312886 -6.467577 -15.414340 10.344079 5.895353 22.393563 3.307571 -52.405604 -2.895689 6.791158 13.860254 -0.692961 5.297378 2.592520 0.627660 0.678910 0.295960 18.425268 -10.435484 2.305412 -3.794269 -0.008154 -1.706884 5.251826 -4.698155 8.342760 -0.583490 -4.201535 2.898242 0.576740 0.498870 0.277230 -5.518218 0.690595 -8.549417 15.726208 2.357052 16.517982 -18.754055 11.621107 9.683434 1.751439 -12.313275 -17.978607 -23.924055 14.774729 16.397758 -3.711410 8.666420 -17.983250 -8.316766 -35.598562 6.129231 10.218568 -15.545038 -12.443140 48.414996 -32.378180 -15.132888 -4.159391 2.840430 0.355000 0.289280 0.079130 0.367900 5.949827 45.888808 6.108395 -15.069031 23.406229 -13.597551 -35.255428 32.294802 -9.919385 2.161727 -1.754856 -0.238370 0.556100 -0.074080 0.016450 
